<?xml version="1.0" encoding="UTF-8" ?>
<!DOCTYPE svg PUBLIC "-//W3C//DTD SVG 1.1//EN" "http://www.w3.org/Graphics/SVG/1.1/DTD/svg11.dtd">
<svg width="180pt" height="180pt" viewBox="0 0 200 200" version="1.1" xmlns="http://www.w3.org/2000/svg">
<g id="#009fe8ff">
<path fill="#009fe8" opacity="1.00" d=" M 57.01 62.04 C 62.06 56.40 71.93 56.39 77.19 61.73 C 85.71 70.12 94.06 78.68 102.61 87.04 C 105.36 89.83 108.08 92.67 110.87 95.43 C 121.55 106.00 132.16 116.64 142.76 127.30 C 147.04 131.34 148.64 138.19 145.78 143.49 C 143.24 149.47 136.18 153.02 129.87 151.67 C 126.95 150.82 124.09 149.43 121.99 147.17 C 113.80 138.97 105.59 130.79 97.41 122.57 C 94.62 119.78 91.82 117.01 89.04 114.22 C 78.35 103.49 67.59 92.83 56.93 82.07 C 51.74 76.73 51.78 67.33 57.01 62.04 Z" />
</g>
<g id="#0053e8ff">
<path fill="#0053e8" opacity="1.00" d=" M 117.34 61.24 C 123.01 56.90 131.59 58.57 136.07 63.88 C 154.56 82.40 173.22 100.76 191.61 119.39 C 195.17 122.55 196.56 127.62 195.73 132.23 C 194.31 140.91 183.45 146.92 175.59 142.43 C 173.11 141.42 171.24 139.46 169.41 137.59 C 151.77 119.77 133.91 102.17 116.21 84.42 C 114.54 88.14 112.61 91.74 110.87 95.43 C 108.08 92.67 105.36 89.83 102.61 87.04 C 104.63 82.10 107.24 77.43 109.51 72.60 C 111.62 68.53 113.17 63.71 117.34 61.24 Z" />
<path fill="#0053e8" opacity="1.00" d=" M 11.50 67.20 C 16.86 64.43 24.15 65.07 28.36 69.61 C 46.80 88.13 65.35 106.55 83.77 125.10 C 85.44 121.43 87.28 117.84 89.04 114.22 C 91.82 117.01 94.62 119.78 97.41 122.57 C 94.60 128.86 91.31 134.93 88.44 141.19 C 86.15 147.24 79.55 151.64 73.03 150.59 C 69.31 150.29 66.25 147.91 63.63 145.46 C 45.45 127.25 27.25 109.08 9.06 90.88 C 5.56 87.30 3.17 82.12 4.31 77.06 C 5.47 73.07 7.77 69.25 11.50 67.20 Z" />
</g>
</svg>
